<mxfile host="app.diagrams.net" modified="2022-05-18T12:51:39.194Z" agent="5.0 (Macintosh; Intel Mac OS X 10_15_7) AppleWebKit/537.36 (KHTML, like Gecko) Chrome/101.0.4951.64 Safari/537.36" etag="gSNC8149ofcfHvjvifvZ" version="18.0.7" type="github">
  <diagram id="0rzKg5z7JBLpK8zDFG1z" name="Page-1">
    <mxGraphModel dx="357" dy="208" grid="1" gridSize="10" guides="1" tooltips="1" connect="1" arrows="1" fold="1" page="1" pageScale="1" pageWidth="850" pageHeight="1100" math="1" shadow="0">
      <root>
        <mxCell id="0" />
        <mxCell id="1" parent="0" />
        <mxCell id="G-dvyiwLuv9M_4oGZBJV-8" value="" style="ellipse;whiteSpace=wrap;html=1;aspect=fixed;fontFamily=Helvetica;fontSize=12;fontColor=default;strokeColor=#000000;fillColor=none;strokeWidth=2;" parent="1" vertex="1">
          <mxGeometry x="400" y="390" width="80" height="80" as="geometry" />
        </mxCell>
        <mxCell id="G-dvyiwLuv9M_4oGZBJV-6" value="" style="ellipse;whiteSpace=wrap;html=1;aspect=fixed;fontFamily=Helvetica;fontSize=12;fontColor=default;strokeColor=#808080;fillColor=none;strokeWidth=2;" parent="1" vertex="1">
          <mxGeometry x="270" y="400" width="200" height="200" as="geometry" />
        </mxCell>
        <mxCell id="G-dvyiwLuv9M_4oGZBJV-2" value="" style="endArrow=classic;html=1;rounded=0;strokeColor=#808080;strokeWidth=3;" parent="1" edge="1">
          <mxGeometry width="50" height="50" relative="1" as="geometry">
            <mxPoint x="230" y="500" as="sourcePoint" />
            <mxPoint x="510" y="500" as="targetPoint" />
          </mxGeometry>
        </mxCell>
        <mxCell id="G-dvyiwLuv9M_4oGZBJV-3" value="" style="endArrow=classic;html=1;rounded=0;strokeColor=#808080;strokeWidth=3;" parent="1" edge="1">
          <mxGeometry width="50" height="50" relative="1" as="geometry">
            <mxPoint x="370" y="640" as="sourcePoint" />
            <mxPoint x="370" y="360" as="targetPoint" />
          </mxGeometry>
        </mxCell>
        <mxCell id="G-dvyiwLuv9M_4oGZBJV-12" value="" style="endArrow=none;html=1;rounded=0;fontFamily=Helvetica;fontSize=12;fontColor=default;exitX=1;exitY=0;exitDx=0;exitDy=0;fillColor=#647687;strokeColor=#000000;strokeWidth=1;entryX=0.679;entryY=0.04;entryDx=0;entryDy=0;entryPerimeter=0;" parent="1" source="G-dvyiwLuv9M_4oGZBJV-6" target="G-dvyiwLuv9M_4oGZBJV-6" edge="1">
          <mxGeometry width="50" height="50" relative="1" as="geometry">
            <mxPoint x="380" y="310" as="sourcePoint" />
            <mxPoint x="410" y="410" as="targetPoint" />
          </mxGeometry>
        </mxCell>
        <mxCell id="G-dvyiwLuv9M_4oGZBJV-13" value="" style="endArrow=none;html=1;rounded=0;fontFamily=Helvetica;fontSize=12;fontColor=default;exitX=1;exitY=0;exitDx=0;exitDy=0;fillColor=#647687;strokeColor=#000000;strokeWidth=1;entryX=0.958;entryY=0.316;entryDx=0;entryDy=0;entryPerimeter=0;" parent="1" source="G-dvyiwLuv9M_4oGZBJV-6" target="G-dvyiwLuv9M_4oGZBJV-6" edge="1">
          <mxGeometry width="50" height="50" relative="1" as="geometry">
            <mxPoint x="80" y="600" as="sourcePoint" />
            <mxPoint x="460" y="460" as="targetPoint" />
          </mxGeometry>
        </mxCell>
        <mxCell id="G-dvyiwLuv9M_4oGZBJV-15" value="" style="endArrow=none;html=1;rounded=0;fontFamily=Helvetica;fontSize=12;fontColor=default;entryX=0.5;entryY=0;entryDx=0;entryDy=0;fillColor=#d5e8d4;strokeColor=#000000;strokeWidth=1;" parent="1" edge="1">
          <mxGeometry width="50" height="50" relative="1" as="geometry">
            <mxPoint x="441" y="429" as="sourcePoint" />
            <mxPoint x="441" y="389" as="targetPoint" />
          </mxGeometry>
        </mxCell>
        <mxCell id="G-dvyiwLuv9M_4oGZBJV-17" value="$$r_s$$" style="edgeLabel;html=1;align=center;verticalAlign=middle;resizable=0;points=[];fontSize=12;fontFamily=Helvetica;fontColor=#000000;labelBackgroundColor=none;" parent="G-dvyiwLuv9M_4oGZBJV-15" vertex="1" connectable="0">
          <mxGeometry x="0.1786" y="-1" relative="1" as="geometry">
            <mxPoint x="-8" as="offset" />
          </mxGeometry>
        </mxCell>
        <mxCell id="G-dvyiwLuv9M_4oGZBJV-18" value="&lt;font style=&quot;font-size: 10px;&quot;&gt;$$\theta_t$$&lt;/font&gt;" style="text;html=1;strokeColor=none;fillColor=none;align=center;verticalAlign=middle;whiteSpace=wrap;rounded=0;labelBackgroundColor=none;fontFamily=Helvetica;fontSize=12;fontColor=none;" parent="1" vertex="1">
          <mxGeometry x="439" y="410" width="20" height="30" as="geometry" />
        </mxCell>
        <mxCell id="G-dvyiwLuv9M_4oGZBJV-21" value="&lt;font style=&quot;font-size: 10px;&quot;&gt;$$2\alpha(r_s)$$&lt;/font&gt;" style="text;html=1;strokeColor=none;fillColor=none;align=center;verticalAlign=middle;whiteSpace=wrap;rounded=0;labelBackgroundColor=none;fontFamily=Helvetica;fontSize=12;fontColor=none;rotation=45;" parent="1" vertex="1">
          <mxGeometry x="402" y="425" width="60" height="30" as="geometry" />
        </mxCell>
        <mxCell id="EGXc6GYEodlwsct1qOdK-1" value="&lt;span style=&quot;&quot;&gt;$$R_L$$&lt;/span&gt;" style="text;html=1;strokeColor=none;fillColor=none;align=center;verticalAlign=middle;whiteSpace=wrap;rounded=0;fontColor=#000000;" vertex="1" parent="1">
          <mxGeometry x="351" y="436" width="60" height="30" as="geometry" />
        </mxCell>
        <mxCell id="EGXc6GYEodlwsct1qOdK-3" value="" style="curved=1;endArrow=none;html=1;rounded=0;fontColor=#000000;strokeColor=#000000;strokeWidth=1.5;endFill=0;" edge="1" parent="1">
          <mxGeometry width="50" height="50" relative="1" as="geometry">
            <mxPoint x="434" y="425" as="sourcePoint" />
            <mxPoint x="444" y="435" as="targetPoint" />
            <Array as="points">
              <mxPoint x="434" y="435" />
            </Array>
          </mxGeometry>
        </mxCell>
        <mxCell id="EGXc6GYEodlwsct1qOdK-4" value="" style="endArrow=classic;html=1;rounded=0;fontColor=#000000;strokeColor=#000000;strokeWidth=1.5;" edge="1" parent="1">
          <mxGeometry width="50" height="50" relative="1" as="geometry">
            <mxPoint x="378" y="431" as="sourcePoint" />
            <mxPoint x="377.88" y="401" as="targetPoint" />
            <Array as="points">
              <mxPoint x="377.88" y="421" />
            </Array>
          </mxGeometry>
        </mxCell>
        <mxCell id="EGXc6GYEodlwsct1qOdK-5" value="" style="endArrow=classic;html=1;rounded=0;fontColor=#000000;strokeColor=#000000;strokeWidth=1.5;" edge="1" parent="1">
          <mxGeometry width="50" height="50" relative="1" as="geometry">
            <mxPoint x="378" y="468" as="sourcePoint" />
            <mxPoint x="378.12" y="498" as="targetPoint" />
          </mxGeometry>
        </mxCell>
        <mxCell id="EGXc6GYEodlwsct1qOdK-7" value="" style="endArrow=none;html=1;rounded=0;fontColor=#000000;strokeColor=#000000;strokeWidth=1.5;" edge="1" parent="1">
          <mxGeometry width="50" height="50" relative="1" as="geometry">
            <mxPoint x="368" y="400" as="sourcePoint" />
            <mxPoint x="388" y="400" as="targetPoint" />
          </mxGeometry>
        </mxCell>
        <mxCell id="EGXc6GYEodlwsct1qOdK-8" value="" style="endArrow=none;html=1;rounded=0;fontColor=#000000;strokeColor=#000000;strokeWidth=1.5;" edge="1" parent="1">
          <mxGeometry width="50" height="50" relative="1" as="geometry">
            <mxPoint x="368" y="499.88" as="sourcePoint" />
            <mxPoint x="388" y="499.88" as="targetPoint" />
          </mxGeometry>
        </mxCell>
      </root>
    </mxGraphModel>
  </diagram>
</mxfile>
